<?xml version="1.0" encoding="UTF-8" standalone="no"?>
<svg
   version="1.1"
   viewBox="0.00 0.00 1024.00 1024.00"
   id="svg24"
   xmlns="http://www.w3.org/2000/svg"
   xmlns:svg="http://www.w3.org/2000/svg">
  <defs
     id="defs28" />
  <g
     stroke-width="2.00"
     fill="none"
     stroke-linecap="butt"
     id="g12">
    <path
       stroke="#8b8c86"
       vector-effect="non-scaling-stroke"
       d="   M 488.54 435.53   Q 479.70 438.73 474.86 442.10   Q 471.29 444.58 465.23 448.94   A 0.75 0.74 56.4 0 1 464.16 448.72   C 452.25 429.42 428.93 406.05 404.29 407.17   C 398.99 407.42 393.56 411.00 392.90 416.69   Q 392.43 420.71 393.87 423.13   C 397.46 429.14 403.29 429.48 410.06 430.43   C 427.96 432.94 441.47 445.46 450.90 460.44   A 0.90 0.90 0.0 0 1 450.78 461.56   Q 431.25 481.21 429.24 508.43   C 427.78 528.33 431.73 546.94 446.48 560.93   A 0.58 0.58 0.0 0 1 446.53 561.72   L 435.88 574.72   A 0.55 0.55 0.0 0 1 435.16 574.84   Q 423.97 567.90 413.47 561.28   C 380.71 540.63 345.11 526.55 306.86 521.40   Q 286.65 518.68 267.52 520.50   C 245.10 522.64 214.18 533.65 212.94 560.81   Q 212.38 572.99 217.26 584.74   C 229.23 613.58 252.08 636.76 279.67 650.83   C 296.24 659.28 315.53 664.18 333.44 662.64   Q 349.90 661.22 366.26 655.84   A 0.39 0.39 0.0 0 1 366.62 656.51   C 346.23 673.02 322.17 697.19 321.26 725.19   C 320.83 738.56 329.25 744.62 341.57 744.63   C 361.29 744.65 379.71 733.75 395.02 721.69   A 0.34 0.34 0.0 0 1 395.57 721.97   Q 395.29 736.45 397.43 749.84   C 401.51 775.34 410.30 800.14 424.17 822.09   C 438.35 844.51 457.10 864.15 480.57 876.66   A 6.39 6.36 -86.5 0 1 483.51 880.00   Q 488.60 893.39 496.02 905.10   Q 499.43 910.48 504.10 914.22   C 508.01 917.35 511.49 915.93 514.70 912.95   C 524.12 904.20 529.56 890.40 534.14 879.20   A 4.77 4.77 0.0 0 1 536.37 876.78   Q 547.80 870.99 557.95 862.22   C 599.07 826.70 621.24 776.56 621.95 721.99   A 0.27 0.27 0.0 0 1 622.38 721.78   C 638.31 734.15 657.10 745.47 678.00 744.53   C 699.95 743.54 697.92 721.05 692.32 706.67   C 684.38 686.30 668.69 670.69 652.12 656.71   A 0.33 0.33 0.0 0 1 652.43 656.15   Q 665.38 660.42 679.01 662.61   C 691.60 664.62 702.41 664.41 713.93 661.14   C 735.06 655.15 755.62 642.03 771.63 626.89   C 787.66 611.73 801.00 591.54 804.35 569.83   C 807.80 547.42 793.14 531.41 772.73 524.98   C 752.84 518.71 730.33 518.55 709.99 521.70   C 673.90 527.27 641.00 540.11 609.33 558.35   Q 589.91 569.54 581.45 574.72   A 0.53 0.53 0.0 0 1 580.76 574.59   L 570.42 561.55   A 0.31 0.31 0.0 0 1 570.44 561.13   C 585.71 545.73 589.67 525.86 586.99 504.45   Q 583.96 480.23 566.17 461.47   A 1.28 1.28 0.0 0 1 566.02 459.90   C 573.62 448.05 585.46 435.88 599.03 432.02   Q 604.71 430.41 612.97 429.43   Q 618.99 428.73 622.47 424.21   C 625.04 420.88 624.91 415.24 622.08 411.92   C 613.99 402.42 596.42 408.66 587.31 413.87   C 572.78 422.18 561.48 434.34 552.52 448.38   A 1.00 1.00 0.0 0 1 551.05 448.62   Q 540.50 440.17 528.00 435.80"
       id="path2" />
    <path
       stroke="#f5d98d"
       vector-effect="non-scaling-stroke"
       d="   M 528.00 435.80   Q 527.67 413.74 528.23 407.50   Q 529.47 393.86 534.25 382.23   C 540.07 368.11 546.94 355.27 557.62 344.62   C 569.69 332.60 577.08 325.80 585.87 314.57   Q 606.47 288.25 605.96 254.45   Q 605.57 229.34 594.51 205.48   Q 580.49 175.23 564.42 149.57   Q 537.94 107.26 509.25 69.22   A 0.77 0.77 0.0 0 0 508.29 69.00   Q 508.08 69.11 507.75 69.50   Q 497.20 82.09 487.09 96.08   Q 466.26 124.89 446.62 157.09   Q 430.79 183.05 419.27 208.76   C 410.96 227.30 408.33 247.34 410.24 268.25   C 412.53 293.33 426.16 315.08 444.43 331.84   Q 455.93 342.38 460.80 347.70   Q 472.27 360.19 479.89 377.08   Q 486.77 392.31 487.85 405.24   Q 488.42 412.17 488.54 435.53"
       id="path4" />
    <path
       stroke="#81681c"
       vector-effect="non-scaling-stroke"
       d="   M 528.00 435.80   Q 508.70 429.91 488.54 435.53"
       id="path6" />
    <path
       stroke="#81681c"
       vector-effect="non-scaling-stroke"
       d="   M 607.95 688.23   L 594.01 650.61   A 0.76 0.76 0.0 0 0 593.07 650.15   C 538.52 667.09 479.09 667.59 424.56 650.06   A 1.13 1.12 18.9 0 0 423.16 650.74   L 409.86 686.77   A 0.94 0.94 0.0 0 0 410.26 687.90   Q 428.96 698.72 450.57 703.88   Q 502.25 716.22 554.22 707.16   C 573.36 703.82 591.01 697.99 607.60 689.15   A 0.75 0.74 -24.4 0 0 607.95 688.23"
       id="path8" />
    <path
       stroke="#81681c"
       vector-effect="non-scaling-stroke"
       d="   M 604.17 754.03   C 582.50 766.61 559.10 771.68 533.51 773.98   Q 485.48 778.31 439.88 764.86   Q 425.26 760.55 413.31 754.60   A 0.18 0.18 0.0 0 0 413.05 754.80   Q 417.98 778.19 430.25 799.04   C 432.56 802.96 437.47 805.15 441.94 807.11   C 465.59 817.46 490.54 821.03 516.47 820.04   C 539.55 819.15 560.26 814.71 580.53 804.52   Q 585.24 802.16 587.37 799.67   A 5.18 4.71 -13.2 0 0 587.94 798.84   Q 599.49 777.79 604.47 754.25   A 0.20 0.20 0.0 0 0 604.17 754.03"
       id="path10" />
  </g>
  <path
     fill="#ebb523"
     d="   M 528.00 435.80   Q 508.70 429.91 488.54 435.53   Q 488.42 412.17 487.85 405.24   Q 486.77 392.31 479.89 377.08   Q 472.27 360.19 460.80 347.70   Q 455.93 342.38 444.43 331.84   C 426.16 315.08 412.53 293.33 410.24 268.25   C 408.33 247.34 410.96 227.30 419.27 208.76   Q 430.79 183.05 446.62 157.09   Q 466.26 124.89 487.09 96.08   Q 497.20 82.09 507.75 69.50   Q 508.08 69.11 508.29 69.00   A 0.77 0.77 0.0 0 1 509.25 69.22   Q 537.94 107.26 564.42 149.57   Q 580.49 175.23 594.51 205.48   Q 605.57 229.34 605.96 254.45   Q 606.47 288.25 585.87 314.57   C 577.08 325.80 569.69 332.60 557.62 344.62   C 546.94 355.27 540.07 368.11 534.25 382.23   Q 529.47 393.86 528.23 407.50   Q 527.67 413.74 528.00 435.80   Z"
     id="path16" />
  <path
     fill="#171b14"
     d="   M 488.54 435.53   Q 508.70 429.91 528.00 435.80   Q 540.50 440.17 551.05 448.62   A 1.00 1.00 0.0 0 0 552.52 448.38   C 561.48 434.34 572.78 422.18 587.31 413.87   C 596.42 408.66 613.99 402.42 622.08 411.92   C 624.91 415.24 625.04 420.88 622.47 424.21   Q 618.99 428.73 612.97 429.43   Q 604.71 430.41 599.03 432.02   C 585.46 435.88 573.62 448.05 566.02 459.90   A 1.28 1.28 0.0 0 0 566.17 461.47   Q 583.96 480.23 586.99 504.45   C 589.67 525.86 585.71 545.73 570.44 561.13   A 0.31 0.31 0.0 0 0 570.42 561.55   L 580.76 574.59   A 0.53 0.53 0.0 0 0 581.45 574.72   Q 589.91 569.54 609.33 558.35   C 641.00 540.11 673.90 527.27 709.99 521.70   C 730.33 518.55 752.84 518.71 772.73 524.98   C 793.14 531.41 807.80 547.42 804.35 569.83   C 801.00 591.54 787.66 611.73 771.63 626.89   C 755.62 642.03 735.06 655.15 713.93 661.14   C 702.41 664.41 691.60 664.62 679.01 662.61   Q 665.38 660.42 652.43 656.15   A 0.33 0.33 0.0 0 0 652.12 656.71   C 668.69 670.69 684.38 686.30 692.32 706.67   C 697.92 721.05 699.95 743.54 678.00 744.53   C 657.10 745.47 638.31 734.15 622.38 721.78   A 0.27 0.27 0.0 0 0 621.95 721.99   C 621.24 776.56 599.07 826.70 557.95 862.22   Q 547.80 870.99 536.37 876.78   A 4.77 4.77 0.0 0 0 534.14 879.20   C 529.56 890.40 524.12 904.20 514.70 912.95   C 511.49 915.93 508.01 917.35 504.10 914.22   Q 499.43 910.48 496.02 905.10   Q 488.60 893.39 483.51 880.00   A 6.39 6.36 -86.5 0 0 480.57 876.66   C 457.10 864.15 438.35 844.51 424.17 822.09   C 410.30 800.14 401.51 775.34 397.43 749.84   Q 395.29 736.45 395.57 721.97   A 0.34 0.34 0.0 0 0 395.02 721.69   C 379.71 733.75 361.29 744.65 341.57 744.63   C 329.25 744.62 320.83 738.56 321.26 725.19   C 322.17 697.19 346.23 673.02 366.62 656.51   A 0.39 0.39 0.0 0 0 366.26 655.84   Q 349.90 661.22 333.44 662.64   C 315.53 664.18 296.24 659.28 279.67 650.83   C 252.08 636.76 229.23 613.58 217.26 584.74   Q 212.38 572.99 212.94 560.81   C 214.18 533.65 245.10 522.64 267.52 520.50   Q 286.65 518.68 306.86 521.40   C 345.11 526.55 380.71 540.63 413.47 561.28   Q 423.97 567.90 435.16 574.84   A 0.55 0.55 0.0 0 0 435.88 574.72   L 446.53 561.72   A 0.58 0.58 0.0 0 0 446.48 560.93   C 431.73 546.94 427.78 528.33 429.24 508.43   Q 431.25 481.21 450.78 461.56   A 0.90 0.90 0.0 0 0 450.90 460.44   C 441.47 445.46 427.96 432.94 410.06 430.43   C 403.29 429.48 397.46 429.14 393.87 423.13   Q 392.43 420.71 392.90 416.69   C 393.56 411.00 398.99 407.42 404.29 407.17   C 428.93 406.05 452.25 429.42 464.16 448.72   A 0.75 0.74 56.4 0 0 465.23 448.94   Q 471.29 444.58 474.86 442.10   Q 479.70 438.73 488.54 435.53   Z   M 607.95 688.23   L 594.01 650.61   A 0.76 0.76 0.0 0 0 593.07 650.15   C 538.52 667.09 479.09 667.59 424.56 650.06   A 1.13 1.12 18.9 0 0 423.16 650.74   L 409.86 686.77   A 0.94 0.94 0.0 0 0 410.26 687.90   Q 428.96 698.72 450.57 703.88   Q 502.25 716.22 554.22 707.16   C 573.36 703.82 591.01 697.99 607.60 689.15   A 0.75 0.74 -24.4 0 0 607.95 688.23   Z   M 604.17 754.03   C 582.50 766.61 559.10 771.68 533.51 773.98   Q 485.48 778.31 439.88 764.86   Q 425.26 760.55 413.31 754.60   A 0.18 0.18 0.0 0 0 413.05 754.80   Q 417.98 778.19 430.25 799.04   C 432.56 802.96 437.47 805.15 441.94 807.11   C 465.59 817.46 490.54 821.03 516.47 820.04   C 539.55 819.15 560.26 814.71 580.53 804.52   Q 585.24 802.16 587.37 799.67   A 5.18 4.71 -13.2 0 0 587.94 798.84   Q 599.49 777.79 604.47 754.25   A 0.20 0.20 0.0 0 0 604.17 754.03   Z"
     id="path18" />
  <path
     fill="#ebb523"
     d="   M 607.95 688.23   A 0.75 0.74 -24.4 0 1 607.60 689.15   C 591.01 697.99 573.36 703.82 554.22 707.16   Q 502.25 716.22 450.57 703.88   Q 428.96 698.72 410.26 687.90   A 0.94 0.94 0.0 0 1 409.86 686.77   L 423.16 650.74   A 1.13 1.12 18.9 0 1 424.56 650.06   C 479.09 667.59 538.52 667.09 593.07 650.15   A 0.76 0.76 0.0 0 1 594.01 650.61   L 607.95 688.23   Z"
     id="path20" />
  <path
     fill="#ebb523"
     d="   M 604.17 754.03   A 0.20 0.20 0.0 0 1 604.47 754.25   Q 599.49 777.79 587.94 798.84   A 5.18 4.71 -13.2 0 1 587.37 799.67   Q 585.24 802.16 580.53 804.52   C 560.26 814.71 539.55 819.15 516.47 820.04   C 490.54 821.03 465.59 817.46 441.94 807.11   C 437.47 805.15 432.56 802.96 430.25 799.04   Q 417.98 778.19 413.05 754.80   A 0.18 0.18 0.0 0 1 413.31 754.60   Q 425.26 760.55 439.88 764.86   Q 485.48 778.31 533.51 773.98   C 559.10 771.68 582.50 766.61 604.17 754.03   Z"
     id="path22" />
</svg>
