<?xml version="1.0" encoding="UTF-8" standalone="no"?>
<svg
   version="1.1"
   viewBox="0.00 0.00 1024.00 1024.00"
   id="svg54"
   xmlns="http://www.w3.org/2000/svg"
   xmlns:svg="http://www.w3.org/2000/svg">
  <defs
     id="defs58" />
  <g
     stroke-width="2.00"
     fill="none"
     stroke-linecap="butt"
     id="g26">
    <path
       stroke="#f7d986"
       vector-effect="non-scaling-stroke"
       d="   M 754.22 825.23   C 810.81 782.41 854.66 725.51 881.68 659.94   Q 907.90 596.35 911.80 529.74   Q 914.46 484.49 907.89 441.57   C 888.40 314.11 807.09 202.64 692.38 144.58   C 648.00 122.13 599.56 108.43 550.00 103.33   Q 451.27 93.17 359.72 130.97   Q 290.45 159.57 235.47 211.84   C 174.66 269.66 133.48 346.81 117.90 429.01   Q 105.56 494.14 115.01 561.74   C 124.99 633.16 154.43 700.17 199.16 756.38   C 258.68 831.16 345.75 882.63 439.35 900.88   Q 456.68 904.26 480.76 906.45   Q 486.95 907.02 489.22 907.04   C 496.19 907.11 503.62 907.95 510.34 907.95   Q 553.08 907.96 592.48 899.68   Q 680.17 881.26 754.22 825.23"
       id="path2" />
    <path
       stroke="#f7d986"
       vector-effect="non-scaling-stroke"
       d="   M 296.96 803.53   Q 379.68 862.68 481.30 872.28   Q 487.77 872.90 489.27 872.95   C 495.99 873.17 502.89 873.81 509.27 873.87   Q 608.72 874.65 694.29 825.03   Q 750.25 792.57 791.57 744.30   Q 850.17 675.86 870.20 586.99   C 887.68 509.43 880.24 426.84 848.44 354.79   C 815.97 281.25 761.51 221.03 691.05 181.98   C 630.23 148.27 561.81 131.71 492.26 135.08   Q 408.16 139.15 334.78 179.75   Q 277.41 211.49 233.95 260.93   Q 215.79 281.58 201.11 305.07   Q 151.63 384.25 145.25 477.23   Q 141.96 525.17 150.14 571.47   Q 160.25 628.75 188.12 680.16   Q 228.42 754.51 296.96 803.53"
       id="path4" />
    <path
       stroke="#f7d986"
       vector-effect="non-scaling-stroke"
       d="   M 348.19 387.78   Q 389.61 387.82 401.73 387.68   C 423.15 387.43 439.32 373.23 444.04 352.79   Q 445.16 347.94 445.09 328.14   Q 444.90 270.46 445.10 229.26   Q 445.12 224.06 444.18 220.34   C 441.68 210.48 429.25 207.23 421.23 212.68   Q 413.97 217.62 413.95 226.52   Q 413.85 274.43 413.99 337.62   Q 414.02 348.13 412.57 350.73   Q 409.51 356.25 401.15 356.21   Q 390.13 356.16 347.41 356.22   A 1.57 1.56 -12.4 0 1 345.97 355.31   C 332.24 325.71 294.27 320.68 273.27 345.06   Q 261.65 358.54 262.81 376.76   C 265.29 415.92 313.23 430.27 339.04 402.81   Q 345.02 396.45 347.44 388.34   A 0.78 0.77 7.9 0 1 348.19 387.78"
       id="path6" />
    <path
       stroke="#f7d986"
       vector-effect="non-scaling-stroke"
       d="   M 591.25 478.84   Q 647.69 478.78 650.23 478.84   Q 659.40 479.04 664.23 478.01   C 688.75 472.78 704.97 456.44 708.94 431.46   Q 710.09 424.25 710.08 412.25   Q 710.04 371.49 709.97 334.51   A 1.88 1.88 0.0 0 1 711.84 332.63   Q 716.67 332.62 725.74 332.52   C 734.55 332.43 744.95 330.22 747.59 320.25   Q 749.78 312.00 743.82 305.24   Q 741.25 302.33 736.14 295.86   Q 733.20 292.14 705.65 254.61   Q 702.60 250.46 699.34 248.19   C 694.08 244.53 687.74 246.89 683.74 251.50   Q 677.82 258.30 670.13 268.38   Q 659.32 282.55 647.27 298.27   C 645.14 301.05 643.21 301.90 639.56 301.91   Q 600.55 302.01 587.50 301.90   Q 576.97 301.81 568.74 303.29   C 550.72 306.53 537.57 322.21 533.71 339.76   Q 531.91 347.92 531.91 360.25   Q 531.91 367.62 531.93 423.03   A 1.79 1.78 80.7 0 1 530.72 424.72   C 515.56 429.82 505.17 443.89 503.18 459.51   Q 501.54 472.34 505.94 483.03   C 519.69 516.43 568.02 519.58 586.18 488.68   C 587.97 485.62 588.96 482.29 590.30 479.44   A 1.06 1.05 -77.0 0 1 591.25 478.84"
       id="path8" />
    <path
       stroke="#898a87"
       vector-effect="non-scaling-stroke"
       d="   M 275.90 609.67   C 267.65 613.21 248.39 622.49 248.88 633.44   C 249.33 643.73 273.65 643.52 280.51 642.93   Q 286.38 642.42 291.95 640.08   A 0.31 0.31 0.0 0 1 292.34 640.52   Q 283.00 656.80 281.14 676.30   C 279.89 689.32 282.71 702.07 291.95 711.67   A 4.31 4.28 -62.5 0 1 293.09 715.33   C 292.50 718.97 290.92 728.34 294.78 729.92   C 299.80 731.97 306.01 723.41 308.31 721.17   A 3.47 3.45 22.7 0 1 310.77 720.17   C 315.59 720.21 319.91 720.09 324.04 718.70   C 345.46 711.49 359.19 691.32 364.95 670.10   A 0.29 0.28 42.6 0 1 365.49 670.08   C 369.47 680.68 378.42 689.41 388.27 695.57   C 393.71 698.98 400.85 701.77 404.49 694.45   C 409.24 684.91 403.47 669.74 398.91 660.82   A 0.44 0.44 0.0 0 1 399.55 660.26   C 412.70 669.71 429.98 673.19 445.30 667.33   Q 458.19 662.41 467.31 655.07   C 474.83 649.02 481.98 639.53 477.65 629.89   C 473.97 621.68 463.77 615.33 454.95 611.78   C 436.65 604.42 417.45 604.39 398.18 609.73   Q 387.00 612.83 375.24 616.50   A 1.02 1.02 0.0 0 1 373.95 615.76   L 372.25 608.52   A 1.16 1.16 0.0 0 1 372.98 607.17   Q 378.13 605.30 379.29 604.62   Q 394.50 595.72 394.40 578.00   Q 394.34 567.17 388.21 558.80   A 1.16 1.16 0.0 0 1 388.39 557.23   Q 394.12 552.34 401.21 549.48   C 406.00 547.55 411.04 547.99 415.70 548.83   C 418.67 549.36 423.10 548.02 423.14 544.49   C 423.19 540.03 417.26 538.18 413.58 538.00   C 401.12 537.38 392.00 543.68 383.81 552.76   A 0.59 0.58 -48.2 0 1 382.99 552.81   Q 373.00 544.02 359.75 543.29   A 0.74 0.73 6.0 0 1 359.06 542.44   C 361.16 529.82 357.12 514.43 345.39 507.64   C 342.46 505.95 337.59 504.48 335.52 507.85   C 332.53 512.71 339.08 516.24 342.52 518.48   C 349.74 523.17 352.78 534.87 353.45 542.96   A 0.74 0.73 -7.4 0 1 352.84 543.74   C 343.09 545.44 334.29 551.17 329.64 560.03   Q 322.13 574.33 329.82 590.17   A 0.24 0.23 -31.0 0 1 329.74 590.47   L 323.26 594.97   A 0.35 0.34 59.2 0 1 322.76 594.84   C 316.29 582.26 310.14 570.53 302.60 561.07   Q 283.26 536.77 252.43 529.28   C 246.42 527.82 237.85 527.59 232.66 531.10   C 217.61 541.29 227.78 569.29 234.27 581.52   C 243.19 598.31 257.35 606.16 275.84 609.21   A 0.24 0.24 0.0 0 1 275.90 609.67"
       id="path10" />
    <path
       stroke="#898a87"
       vector-effect="non-scaling-stroke"
       d="   M 656.04 656.65   Q 655.24 651.23 655.50 639.77   Q 655.86 624.43 664.96 614.44   C 675.25 603.14 690.09 600.25 704.59 599.14   A 0.84 0.84 0.0 0 1 705.48 599.79   C 707.18 607.46 716.01 609.40 722.06 606.06   C 728.36 602.59 727.26 597.86 726.13 590.69   Q 722.57 568.22 721.86 563.69   C 719.65 549.65 696.35 553.32 700.60 566.44   A 0.86 0.85 80.0 0 1 699.82 567.56   Q 683.38 568.11 668.15 574.12   C 641.38 584.70 624.16 608.92 623.01 637.49   Q 622.67 645.96 622.66 656.69   A 0.51 0.51 0.0 0 1 622.13 657.20   Q 617.84 657.00 615.77 657.15   C 607.04 657.77 604.09 664.62 605.02 672.48   C 605.70 678.21 608.75 682.15 614.52 682.69   Q 616.35 682.86 618.41 683.02   A 0.81 0.81 0.0 0 1 619.14 684.02   L 617.09 692.15   A 3.04 3.04 0.0 0 1 616.64 693.11   Q 602.88 712.56 593.03 732.23   A 1.40 1.40 0.0 0 1 591.79 733.01   Q 581.27 733.17 570.76 732.94   C 567.19 732.86 561.24 731.40 561.20 726.96   Q 561.03 711.85 561.23 692.71   A 0.56 0.56 0.0 0 1 561.78 692.15   C 569.43 691.96 577.30 688.79 575.97 679.35   C 574.65 669.95 564.92 669.86 557.76 669.92   Q 540.60 670.06 527.01 669.86   C 521.60 669.77 517.45 670.38 513.85 674.39   C 510.23 678.41 511.13 685.76 515.43 689.02   Q 519.67 692.23 525.71 692.05   A 0.61 0.60 89.1 0 1 526.33 692.66   Q 526.33 712.21 526.61 731.25   Q 526.77 742.33 528.40 746.66   C 532.01 756.26 541.84 762.61 551.80 763.00   Q 562.25 763.41 580.26 763.17   A 0.61 0.61 0.0 0 1 580.84 764.00   C 578.54 770.18 576.74 775.67 576.86 783.21   C 577.04 794.66 586.08 796.06 595.25 796.06   Q 681.90 796.08 686.50 796.04   C 695.72 795.95 704.71 793.25 704.25 781.97   Q 703.81 770.96 699.73 760.29   C 690.52 736.21 679.29 715.64 665.01 695.65   C 662.05 691.51 661.69 689.27 660.66 683.86   A 0.79 0.78 84.1 0 1 661.41 682.93   Q 672.55 682.69 673.28 672.77   C 673.85 665.05 671.86 657.82 662.76 657.17   Q 661.35 657.07 656.61 657.14   A 0.57 0.56 85.4 0 1 656.04 656.65"
       id="path12" />
    <path
       stroke="#f7d986"
       vector-effect="non-scaling-stroke"
       d="   M 556.69 563.38   Q 556.25 563.33 555.89 563.62   C 542.40 574.37 528.74 586.57 522.03 601.09   C 512.59 621.52 516.68 642.54 535.74 655.77   C 541.33 659.65 548.41 660.85 554.36 657.10   C 567.34 648.92 571.24 632.10 564.95 618.54   Q 564.14 616.78 560.69 610.09   C 555.84 600.66 554.66 590.38 555.57 578.92   Q 556.32 569.54 557.02 563.84   Q 557.07 563.43 556.69 563.38"
       id="path14" />
    <path
       stroke="#f7d986"
       vector-effect="non-scaling-stroke"
       d="   M 295.8902 362.5500   A 15.38 14.02 -135.5 0 0 297.0333 383.3298   A 15.38 14.02 -135.5 0 0 317.8298 384.1100   A 15.38 14.02 -135.5 0 0 316.6867 363.3302   A 15.38 14.02 -135.5 0 0 295.8902 362.5500"
       id="path16" />
    <path
       stroke="#f7d986"
       vector-effect="non-scaling-stroke"
       d="   M 563.68 424.57   Q 580.06 430.83 587.76 445.84   A 2.19 2.19 0.0 0 0 589.71 447.03   Q 651.37 447.06 655.51 446.99   C 665.57 446.82 675.31 439.36 677.70 429.67   Q 678.31 427.20 678.28 415.28   Q 678.25 401.40 678.28 334.79   A 2.04 2.03 9.1 0 0 676.88 332.86   Q 675.56 332.43 673.75 332.43   Q 620.04 332.45 583.28 332.61   Q 577.80 332.63 576.01 333.22   C 566.35 336.40 563.42 344.07 563.42 353.43   Q 563.41 414.56 563.35 424.09   A 0.51 0.50 -80.3 0 0 563.68 424.57"
       id="path18" />
    <path
       stroke="#f7d986"
       vector-effect="non-scaling-stroke"
       d="   M 560.2820 455.2453   A 16.64 15.66 -40.4 0 0 537.4604 454.1043   A 16.64 15.66 -40.4 0 0 534.9380 476.8147   A 16.64 15.66 -40.4 0 0 557.7596 477.9557   A 16.64 15.66 -40.4 0 0 560.2820 455.2453"
       id="path20" />
    <path
       stroke="#826814"
       vector-effect="non-scaling-stroke"
       d="   M 359.59 647.53   C 342.59 647.01 325.28 640.45 313.79 627.51   A 1.06 1.05 51.7 0 0 312.39 627.34   L 302.73 634.04   A 2.09 2.09 0.0 0 0 301.99 636.53   C 304.73 643.27 310.20 647.35 316.81 651.63   Q 332.86 662.01 350.69 663.34   Q 355.90 663.73 361.05 662.64   A 0.96 0.96 0.0 0 0 361.80 661.60   L 360.30 648.18   A 0.73 0.73 0.0 0 0 359.59 647.53"
       id="path22" />
    <path
       stroke="#826814"
       vector-effect="non-scaling-stroke"
       d="   M 353.48 686.44   C 341.15 688.54 330.39 685.41 318.40 680.47   Q 307.29 675.91 297.67 669.38   C 294.29 667.09 290.70 663.72 288.59 660.51   A 0.24 0.24 0.0 0 0 288.16 660.58   C 284.59 673.30 289.99 683.20 300.24 690.40   C 308.05 695.87 314.48 699.69 323.67 699.96   C 336.49 700.34 346.46 698.47 353.82 686.94   A 0.33 0.33 0.0 0 0 353.48 686.44"
       id="path24" />
  </g>
  <path
     fill="#f0b613"
     d="   M 881.68 659.94   C 854.66 725.51 810.81 782.41 754.22 825.23   Q 680.17 881.26 592.48 899.68   Q 553.08 907.96 510.34 907.95   C 503.62 907.95 496.19 907.11 489.22 907.04   Q 486.95 907.02 480.76 906.45   Q 456.68 904.26 439.35 900.88   C 345.75 882.63 258.68 831.16 199.16 756.38   C 154.43 700.17 124.99 633.16 115.01 561.74   Q 105.56 494.14 117.90 429.01   C 133.48 346.81 174.66 269.66 235.47 211.84   Q 290.45 159.57 359.72 130.97   Q 451.27 93.17 550.00 103.33   C 599.56 108.43 648.00 122.13 692.38 144.58   C 807.09 202.64 888.40 314.11 907.89 441.57   Q 914.46 484.49 911.80 529.74   Q 907.90 596.35 881.68 659.94   Z   M 296.96 803.53   Q 379.68 862.68 481.30 872.28   Q 487.77 872.90 489.27 872.95   C 495.99 873.17 502.89 873.81 509.27 873.87   Q 608.72 874.65 694.29 825.03   Q 750.25 792.57 791.57 744.30   Q 850.17 675.86 870.20 586.99   C 887.68 509.43 880.24 426.84 848.44 354.79   C 815.97 281.25 761.51 221.03 691.05 181.98   C 630.23 148.27 561.81 131.71 492.26 135.08   Q 408.16 139.15 334.78 179.75   Q 277.41 211.49 233.95 260.93   Q 215.79 281.58 201.11 305.07   Q 151.63 384.25 145.25 477.23   Q 141.96 525.17 150.14 571.47   Q 160.25 628.75 188.12 680.16   Q 228.42 754.51 296.96 803.53   Z"
     id="path30" />
  <path
     fill="#f0b613"
     d="   M 348.19 387.78   A 0.78 0.77 7.9 0 0 347.44 388.34   Q 345.02 396.45 339.04 402.81   C 313.23 430.27 265.29 415.92 262.81 376.76   Q 261.65 358.54 273.27 345.06   C 294.27 320.68 332.24 325.71 345.97 355.31   A 1.57 1.56 -12.4 0 0 347.41 356.22   Q 390.13 356.16 401.15 356.21   Q 409.51 356.25 412.57 350.73   Q 414.02 348.13 413.99 337.62   Q 413.85 274.43 413.95 226.52   Q 413.97 217.62 421.23 212.68   C 429.25 207.23 441.68 210.48 444.18 220.34   Q 445.12 224.06 445.10 229.26   Q 444.90 270.46 445.09 328.14   Q 445.16 347.94 444.04 352.79   C 439.32 373.23 423.15 387.43 401.73 387.68   Q 389.61 387.82 348.19 387.78   Z   M 295.8902 362.5500   A 15.38 14.02 -135.5 0 0 297.0333 383.3298   A 15.38 14.02 -135.5 0 0 317.8298 384.1100   A 15.38 14.02 -135.5 0 0 316.6867 363.3302   A 15.38 14.02 -135.5 0 0 295.8902 362.5500   Z"
     id="path34" />
  <path
     fill="#f0b613"
     d="   M 590.30 479.44   C 588.96 482.29 587.97 485.62 586.18 488.68   C 568.02 519.58 519.69 516.43 505.94 483.03   Q 501.54 472.34 503.18 459.51   C 505.17 443.89 515.56 429.82 530.72 424.72   A 1.79 1.78 80.7 0 0 531.93 423.03   Q 531.91 367.62 531.91 360.25   Q 531.91 347.92 533.71 339.76   C 537.57 322.21 550.72 306.53 568.74 303.29   Q 576.97 301.81 587.50 301.90   Q 600.55 302.01 639.56 301.91   C 643.21 301.90 645.14 301.05 647.27 298.27   Q 659.32 282.55 670.13 268.38   Q 677.82 258.30 683.74 251.50   C 687.74 246.89 694.08 244.53 699.34 248.19   Q 702.60 250.46 705.65 254.61   Q 733.20 292.14 736.14 295.86   Q 741.25 302.33 743.82 305.24   Q 749.78 312.00 747.59 320.25   C 744.95 330.22 734.55 332.43 725.74 332.52   Q 716.67 332.62 711.84 332.63   A 1.88 1.88 0.0 0 0 709.97 334.51   Q 710.04 371.49 710.08 412.25   Q 710.09 424.25 708.94 431.46   C 704.97 456.44 688.75 472.78 664.23 478.01   Q 659.40 479.04 650.23 478.84   Q 647.69 478.78 591.25 478.84   A 1.06 1.05 -77.0 0 0 590.30 479.44   Z   M 563.68 424.57   Q 580.06 430.83 587.76 445.84   A 2.19 2.19 0.0 0 0 589.71 447.03   Q 651.37 447.06 655.51 446.99   C 665.57 446.82 675.31 439.36 677.70 429.67   Q 678.31 427.20 678.28 415.28   Q 678.25 401.40 678.28 334.79   A 2.04 2.03 9.1 0 0 676.88 332.86   Q 675.56 332.43 673.75 332.43   Q 620.04 332.45 583.28 332.61   Q 577.80 332.63 576.01 333.22   C 566.35 336.40 563.42 344.07 563.42 353.43   Q 563.41 414.56 563.35 424.09   A 0.51 0.50 -80.3 0 0 563.68 424.57   Z   M 560.2820 455.2453   A 16.64 15.66 -40.4 0 0 537.4604 454.1043   A 16.64 15.66 -40.4 0 0 534.9380 476.8147   A 16.64 15.66 -40.4 0 0 557.7596 477.9557   A 16.64 15.66 -40.4 0 0 560.2820 455.2453   Z"
     id="path36" />
  <path
     fill="#141915"
     d="   M 275.90 609.67   A 0.24 0.24 0.0 0 0 275.84 609.21   C 257.35 606.16 243.19 598.31 234.27 581.52   C 227.78 569.29 217.61 541.29 232.66 531.10   C 237.85 527.59 246.42 527.82 252.43 529.28   Q 283.26 536.77 302.60 561.07   C 310.14 570.53 316.29 582.26 322.76 594.84   A 0.35 0.34 59.2 0 0 323.26 594.97   L 329.74 590.47   A 0.24 0.23 -31.0 0 0 329.82 590.17   Q 322.13 574.33 329.64 560.03   C 334.29 551.17 343.09 545.44 352.84 543.74   A 0.74 0.73 -7.4 0 0 353.45 542.96   C 352.78 534.87 349.74 523.17 342.52 518.48   C 339.08 516.24 332.53 512.71 335.52 507.85   C 337.59 504.48 342.46 505.95 345.39 507.64   C 357.12 514.43 361.16 529.82 359.06 542.44   A 0.74 0.73 6.0 0 0 359.75 543.29   Q 373.00 544.02 382.99 552.81   A 0.59 0.58 -48.2 0 0 383.81 552.76   C 392.00 543.68 401.12 537.38 413.58 538.00   C 417.26 538.18 423.19 540.03 423.14 544.49   C 423.10 548.02 418.67 549.36 415.70 548.83   C 411.04 547.99 406.00 547.55 401.21 549.48   Q 394.12 552.34 388.39 557.23   A 1.16 1.16 0.0 0 0 388.21 558.80   Q 394.34 567.17 394.40 578.00   Q 394.50 595.72 379.29 604.62   Q 378.13 605.30 372.98 607.17   A 1.16 1.16 0.0 0 0 372.25 608.52   L 373.95 615.76   A 1.02 1.02 0.0 0 0 375.24 616.50   Q 387.00 612.83 398.18 609.73   C 417.45 604.39 436.65 604.42 454.95 611.78   C 463.77 615.33 473.97 621.68 477.65 629.89   C 481.98 639.53 474.83 649.02 467.31 655.07   Q 458.19 662.41 445.30 667.33   C 429.98 673.19 412.70 669.71 399.55 660.26   A 0.44 0.44 0.0 0 0 398.91 660.82   C 403.47 669.74 409.24 684.91 404.49 694.45   C 400.85 701.77 393.71 698.98 388.27 695.57   C 378.42 689.41 369.47 680.68 365.49 670.08   A 0.29 0.28 42.6 0 0 364.95 670.10   C 359.19 691.32 345.46 711.49 324.04 718.70   C 319.91 720.09 315.59 720.21 310.77 720.17   A 3.47 3.45 22.7 0 0 308.31 721.17   C 306.01 723.41 299.80 731.97 294.78 729.92   C 290.92 728.34 292.50 718.97 293.09 715.33   A 4.31 4.28 -62.5 0 0 291.95 711.67   C 282.71 702.07 279.89 689.32 281.14 676.30   Q 283.00 656.80 292.34 640.52   A 0.31 0.31 0.0 0 0 291.95 640.08   Q 286.38 642.42 280.51 642.93   C 273.65 643.52 249.33 643.73 248.88 633.44   C 248.39 622.49 267.65 613.21 275.90 609.67   Z   M 359.59 647.53   C 342.59 647.01 325.28 640.45 313.79 627.51   A 1.06 1.05 51.7 0 0 312.39 627.34   L 302.73 634.04   A 2.09 2.09 0.0 0 0 301.99 636.53   C 304.73 643.27 310.20 647.35 316.81 651.63   Q 332.86 662.01 350.69 663.34   Q 355.90 663.73 361.05 662.64   A 0.96 0.96 0.0 0 0 361.80 661.60   L 360.30 648.18   A 0.73 0.73 0.0 0 0 359.59 647.53   Z   M 353.48 686.44   C 341.15 688.54 330.39 685.41 318.40 680.47   Q 307.29 675.91 297.67 669.38   C 294.29 667.09 290.70 663.72 288.59 660.51   A 0.24 0.24 0.0 0 0 288.16 660.58   C 284.59 673.30 289.99 683.20 300.24 690.40   C 308.05 695.87 314.48 699.69 323.67 699.96   C 336.49 700.34 346.46 698.47 353.82 686.94   A 0.33 0.33 0.0 0 0 353.48 686.44   Z"
     id="path44" />
  <path
     fill="#141915"
     d="   M 656.61 657.14   Q 661.35 657.07 662.76 657.17   C 671.86 657.82 673.85 665.05 673.28 672.77   Q 672.55 682.69 661.41 682.93   A 0.79 0.78 84.1 0 0 660.66 683.86   C 661.69 689.27 662.05 691.51 665.01 695.65   C 679.29 715.64 690.52 736.21 699.73 760.29   Q 703.81 770.96 704.25 781.97   C 704.71 793.25 695.72 795.95 686.50 796.04   Q 681.90 796.08 595.25 796.06   C 586.08 796.06 577.04 794.66 576.86 783.21   C 576.74 775.67 578.54 770.18 580.84 764.00   A 0.61 0.61 0.0 0 0 580.26 763.17   Q 562.25 763.41 551.80 763.00   C 541.84 762.61 532.01 756.26 528.40 746.66   Q 526.77 742.33 526.61 731.25   Q 526.33 712.21 526.33 692.66   A 0.61 0.60 89.1 0 0 525.71 692.05   Q 519.67 692.23 515.43 689.02   C 511.13 685.76 510.23 678.41 513.85 674.39   C 517.45 670.38 521.60 669.77 527.01 669.86   Q 540.60 670.06 557.76 669.92   C 564.92 669.86 574.65 669.95 575.97 679.35   C 577.30 688.79 569.43 691.96 561.78 692.15   A 0.56 0.56 0.0 0 0 561.23 692.71   Q 561.03 711.85 561.20 726.96   C 561.24 731.40 567.19 732.86 570.76 732.94   Q 581.27 733.17 591.79 733.01   A 1.40 1.40 0.0 0 0 593.03 732.23   Q 602.88 712.56 616.64 693.11   A 3.04 3.04 0.0 0 0 617.09 692.15   L 619.14 684.02   A 0.81 0.81 0.0 0 0 618.41 683.02   Q 616.35 682.86 614.52 682.69   C 608.75 682.15 605.70 678.21 605.02 672.48   C 604.09 664.62 607.04 657.77 615.77 657.15   Q 617.84 657.00 622.13 657.20   A 0.51 0.51 0.0 0 0 622.66 656.69   Q 622.67 645.96 623.01 637.49   C 624.16 608.92 641.38 584.70 668.15 574.12   Q 683.38 568.11 699.82 567.56   A 0.86 0.85 80.0 0 0 700.60 566.44   C 696.35 553.32 719.65 549.65 721.86 563.69   Q 722.57 568.22 726.13 590.69   C 727.26 597.86 728.36 602.59 722.06 606.06   C 716.01 609.40 707.18 607.46 705.48 599.79   A 0.84 0.84 0.0 0 0 704.59 599.14   C 690.09 600.25 675.25 603.14 664.96 614.44   Q 655.86 624.43 655.50 639.77   Q 655.24 651.23 656.04 656.65   A 0.57 0.56 85.4 0 0 656.61 657.14   Z"
     id="path46" />
  <path
     fill="#f0b613"
     d="   M 556.69 563.38   Q 557.07 563.43 557.02 563.84   Q 556.32 569.54 555.57 578.92   C 554.66 590.38 555.84 600.66 560.69 610.09   Q 564.14 616.78 564.95 618.54   C 571.24 632.10 567.34 648.92 554.36 657.10   C 548.41 660.85 541.33 659.65 535.74 655.77   C 516.68 642.54 512.59 621.52 522.03 601.09   C 528.74 586.57 542.40 574.37 555.89 563.62   Q 556.25 563.33 556.69 563.38   Z"
     id="path48" />
  <path
     fill="#f0b613"
     d="   M 359.59 647.53   A 0.73 0.73 0.0 0 1 360.30 648.18   L 361.80 661.60   A 0.96 0.96 0.0 0 1 361.05 662.64   Q 355.90 663.73 350.69 663.34   Q 332.86 662.01 316.81 651.63   C 310.20 647.35 304.73 643.27 301.99 636.53   A 2.09 2.09 0.0 0 1 302.73 634.04   L 312.39 627.34   A 1.06 1.05 51.7 0 1 313.79 627.51   C 325.28 640.45 342.59 647.01 359.59 647.53   Z"
     id="path50" />
  <path
     fill="#f0b613"
     d="   M 353.48 686.44   A 0.33 0.33 0.0 0 1 353.82 686.94   C 346.46 698.47 336.49 700.34 323.67 699.96   C 314.48 699.69 308.05 695.87 300.24 690.40   C 289.99 683.20 284.59 673.30 288.16 660.58   A 0.24 0.24 0.0 0 1 288.59 660.51   C 290.70 663.72 294.29 667.09 297.67 669.38   Q 307.29 675.91 318.40 680.47   C 330.39 685.41 341.15 688.54 353.48 686.44   Z"
     id="path52" />
</svg>
